<?xml version="1.0" encoding="UTF-8"?>
<svg id="a8b5f522-8b92-4ad6-a8ab-2d8a1167be5c" data-name="Layer 1" xmlns="http://www.w3.org/2000/svg" viewBox="0 0 267.9 116.76"><path d="M127.55,86.8a12.42,12.42,0,0,1,.38-3.27c1.41,0,2.66.07,3.83.07,2.34,0,4.38-.07,6.76-.07,1.69,0,3.48,0,5.69.13-1.9,7.35-3.86,13.56-6.35,20.83,2.42,0,4.11.11,7-.1a13,13,0,0,1,.38,2.93c0,1-.11,2-.14,3.41-2.1,0-3.79.07-5.31.07-3.24,0-5.83-.07-10.76-.1,1.59-6.17,4.83-14.17,7-21.14-2.86.07-5.24.1-8.73.14C127.34,88.49,127.45,87.87,127.55,86.8Z"/><path d="M154.16,111.18c-2.62,0-5.62-.34-6.14-3a83.05,83.05,0,0,1-1.1-11.21c.07-2.48,0-3.34,1.27-4.76s2.52-1.76,6.42-1.82c2.1,0,4.52.17,6,2,1.35,1.62,1.62,4.75,1.62,9.62a19.24,19.24,0,0,1-.72,6.17c-.83,2.07-2.73,3-6.45,3ZM153.3,104c.17,1.1.1,1.79,1.76,1.83,0,0,1.51.17,1.44-1.62,0,0,.28-1.24-.31-7.31-.1-1.18-.65-1.59-1.41-1.69s-2.38,0-2.1,1.82A61.44,61.44,0,0,0,153.3,104Z"/><path d="M180,96.84c0,.83.11,2.62.11,3.52v10.27l-5.56,0c-.13-4.31.07-7.11-.13-11,0,0,.13-3.07-1.17-3.38-1-.24-2.7,1.31-2.7,1.31v6s0,1.76,0,7.14c-3.41.1-2.1.1-5.62.1l-.24-20.59c.59,0,1,0,1.35,0,1.34,0,1.2.1,2.93.1h.76l.34,2.62a8.6,8.6,0,0,1,5.62-2.2,5.71,5.71,0,0,1,2.18.38C180.09,92.42,179.92,93.87,180,96.84Z"/><path d="M194.72,106l.38,4.69c-1.59,0-3,.1-4.18.1-3.34,0-5.27-.34-6.69-1.93s-1.75-5.42-1.75-8.62c0-1.28,0-2.49.1-3.38.17-2.86.65-6.11,4.27-7,1.18-.1,2.18-.17,3-.17,4,0,4.9,1.07,5.48,2.07a8,8,0,0,1,.9,3.38c.07,1,.17,1.62.17,2.55,0,.41,0,.86-.24,3.72-3,.07-5.69-.2-8.17-.17a11.53,11.53,0,0,0,.38,3.8C188.79,105.87,191.23,106.22,194.72,106Zm-3.14-8.38c.1-1.56-.07-2,0-2s-.07-1.31-1.86-1.24-1.45,1.31-1.52,1.31-.17.55-.14,2Z"/><path d="M127.27,20V15.31c3,0,3.18-.18,5.59-.18h.79l-.06,10.24,5-.31c0-2.82,0-6.48,0-9.75,2.38,0,2.76-.18,4.65-.18.42,0,.86,0,1.45,0,.17,4.55.24,8.76.24,13,0,4.59-.07,9.28-.1,14.49l-6.31-.11.1-11.58-4.93.2s0,7.9-.14,11.28h-.69c-1.31,0-2,.07-5.24.17Z"/><path d="M149.24,25.93a25,25,0,0,1-.14-2.8c0-.58,0-1.13,0-1.58,1.52,0,2.76-.07,3.93-.07a18.25,18.25,0,0,1,2,.07c2.31.2,4,.79,4.82,1.76a6.11,6.11,0,0,1,1.31,3.1c.25,2.28.42,5.1.52,6.41.28,3.21.38,6.52.62,9.73-2,.27-3.17.38-4.69.52-.07-.42-.1-1-.14-1.76a13.68,13.68,0,0,1-5.55,1.45,5.3,5.3,0,0,1-3.24-1,6,6,0,0,1-2-4.83,7.06,7.06,0,0,1,1.18-4.21c1.2-1.41,4.27-1.82,8.62-1.93l-.14-2a2.63,2.63,0,0,0-2.17-2.45A14.58,14.58,0,0,0,149.24,25.93Zm3.21,9.65c-.48.42-1.1,2.21.31,2.48s2.55-.24,4-.79l-.14-2.34C154.24,35,153.07,35.06,152.45,35.58Z"/><path d="M165.51,20.75l5.17.14.24,2.62c1.73-.51,3.52-1.31,6-2,.45,1.89.38,2.86.72,4.62,0,0-5.89,3-6,3.41-.24.73-.45,7.83-.45,13.07-1.35.07-2.07.07-2.66.07-.93,0-1.44,0-3.41-.07C165.27,34.62,165.4,22.17,165.51,20.75Z"/><path d="M190.28,38.24c0,.72-.1,1.24-.1,2s-.11,1.45-.11,2a2.37,2.37,0,0,0,0,.55,3.42,3.42,0,0,1-1.18.25c-.2,0-.44,0-.82,0a23.53,23.53,0,0,1-4.76-.52c-2.49-.65-3.07-3.55-3.14-4.65C180,33,179.9,30,179.83,25l-.14-9.83c3.17.21,2,.18,5.8.35.2,8.21.2,11.65.41,18.9.1,3.79,3,3.06,4.34,3.13A4.91,4.91,0,0,1,190.28,38.24Z"/><path d="M205.66,37.86l.17,4.93c-.93,0-1.83.07-2.69.07-4.66,0-7.93-.59-9.31-2.17S192,34.75,192,31.48c0-.83,0-1.59,0-2.24.14-2.93.83-6.59,4.49-7.21a22.21,22.21,0,0,1,3.62-.34c3.52,0,4.62,1.27,5.1,2.06a7.59,7.59,0,0,1,1,3.28c.1,1.41.07,2.1.13,3.93,0,0-.17,2.42-.17,2.35-2.89.1-6,0-8.45,0a7.92,7.92,0,0,0,.07,1.93c.24,1.49.73,1.73.9,1.86C200.1,38.1,203.28,37.86,205.66,37.86Zm-4-8.21a24.05,24.05,0,0,0-.14-2.55c0-.07,0-1-2-1s-1.83,1.59-1.83,1.59a14.48,14.48,0,0,0-.07,1.89Z"/><path d="M219,42.62s-.31-11.38-.31-11.45l-.07-1.24c-.31-1.07-.59-1.35-1.9-1.35-1.24.52-1.28,1.86-1.28,2.69V42.58l-6.31.07c-.07-1.31-.24-6.62-.31-11.52-.07-2.69-.14-5.34-.14-8.58,2.9,0,2.87.17,5.49.34a16,16,0,0,1,.65,2.07,7.49,7.49,0,0,1,5.11-2.34,5.65,5.65,0,0,1,4.31,2.07,9.13,9.13,0,0,1,5.31-1.9c3.41,0,4,2.52,4.1,2.83.14.07.17,5.69.24,8.72v5.07c0,1.07,0,2.14,0,3.17-.66,0-1.83.07-3.31.07-.76,0-1.59,0-2.45-.07l-.62-12c-.11-1.93-.73-1.83-1.9-1.89a2.14,2.14,0,0,0-1.31,2.2c0,2.62-.07,10.49-.1,11.69C222.51,42.58,219,42.62,219,42.62Z"/><path d="M134.69,68.74c.14,1.63,1.72,1.9,3,1.9a34.43,34.43,0,0,0,4,.07c-.17,2.79-.07,3.38-.28,6.28-1.06,0-2.31,0-3.58,0a27.72,27.72,0,0,1-4.42-.51c-3.27-.56-4.62-1.66-5.24-3.73a30.87,30.87,0,0,1-.83-8.14,49.9,49.9,0,0,1,.94-10c.65-3,2-3.9,4.93-4.66a20,20,0,0,1,5.65-.55c.9,0,2,0,3.24,0l-.2,6.35c-2.24,0-3.52-.07-4.69,0a2.6,2.6,0,0,0-2.31,1.45A51.68,51.68,0,0,0,134.69,68.74Z"/><path d="M160.4,65c0,.27,0,.55,0,.82,0,.9-.07,1.83-.1,2.66l-.17,8.14c-3.18,0-2.31,0-5.59,0v-6c0-3,0-5.87-.1-7.18,0-1-1.35-1.31-2.11-1.17a1.65,1.65,0,0,0-1.45,1.45c-.1.34-.1,3.41-.1,4.55,0,1.38-.24,6.11-.24,8.31h-5.93c0-3.07.07-6,.07-8.72V60c0-3.11-.14-6.28-.14-9.38v-.94c2.48.11,2.65.28,4.79.28h1c.14,2,.07,4.66.21,7.45a7.25,7.25,0,0,1,4.62-1.59,10.3,10.3,0,0,1,2.62.38c2,.55,2.31,3,2.38,3.8C160.29,61.05,160.33,63.85,160.4,65Z"/><path d="M169.84,51.05a5.44,5.44,0,0,1-.62,2.42c-3.27,2.48-6.31.24-6.31-2.14a3.19,3.19,0,0,1,3.14-3.48,5.91,5.91,0,0,1,1.59.2A3,3,0,0,1,169.84,51.05Zm.76,25.56c-1.38.07-2.14.07-2.79.07h-1.48c-.59,0-1.35,0-2.49,0-.41-6.72-.52-11.48-.52-17.38V57a60.92,60.92,0,0,1,6.38-.21C170,58.71,170.57,74.37,170.6,76.61Z"/><path d="M184.21,72.26c0,.73-.1,1.24-.1,2s-.1,1.45-.1,2a3.2,3.2,0,0,0,0,.55,3.61,3.61,0,0,1-1.17.24c-.21,0-.45,0-.83,0a25,25,0,0,1-4.76-.52c-2.48-.66-3.07-3.55-3.14-4.66-.24-4.82-.31-7.86-.38-12.89l-.13-9.83c3.17.2,2,.17,5.79.34.21,8.21.21,11.66.41,18.9.11,3.79,3,3.07,4.35,3.14A6.37,6.37,0,0,1,184.21,72.26Z"/><path d="M185.18,65.92c0-1.24.07-2.38.1-3.31.17-3.69.93-6.14,5.28-6.49a8.58,8.58,0,0,1,3.9,1.11l-.52-8.18,6,.07c.41,9.24.9,18.07,1.24,27.56l-5.76.31-.24-2.38a21.5,21.5,0,0,1-5.28,1.83h-.48a3.11,3.11,0,0,1-2.69-1.21C185.49,72.61,185.18,69,185.18,65.92Zm7-4.45c-1.27,0-1,1-1.1,2.59-.07.41.31,5.31.34,5.58.25,1.45.63,1.52,1,1.66A3.49,3.49,0,0,0,194.94,70s-.17-2.24-.24-3.89c-.07-1.42-.21-3.59-.21-3.59A2.25,2.25,0,0,0,192.21,61.47Z"/><path d="M203.08,71.09c0-2.62,0-5.21,0-8.41,0-4,.31-7.18.31-7.42.21-.1,5.59-.14,5.59-.14l.27,2.62A44.65,44.65,0,0,1,215.15,56c.41,1.86.69,3,1.17,4.52,0,0-6.59,2.83-6.76,3.27-.31.76-.45,7.56-.45,12.8-2.34.07-2.86.14-3.83.14-.51,0-1.13,0-2.24-.07C203.08,74.92,203.08,73,203.08,71.09Z"/><path d="M230.18,71.88l.17,4.93c-.93,0-1.82.07-2.69.07-4.65,0-7.93-.58-9.31-2.17s-1.82-5.93-1.82-9.21c0-.82,0-1.58,0-2.24.14-2.93.83-6.58,4.48-7.21a22.21,22.21,0,0,1,3.62-.34c3.52,0,4.62,1.28,5.11,2.07a7.41,7.41,0,0,1,1,3.27c.11,1.42.07,2.11.14,3.94,0,0-.17,2.41-.17,2.34-2.9.1-6,0-8.45,0a7.92,7.92,0,0,0,.07,1.93c.24,1.48.72,1.72.89,1.86C224.63,72.12,227.8,71.88,230.18,71.88Zm-4-8.2a24.37,24.37,0,0,0-.14-2.56c0-.07,0-1-2-1s-1.83,1.59-1.83,1.59a13.79,13.79,0,0,0-.06,1.9Z"/><path d="M249.11,62.81v3.35c0,1.76-.13,7.17-.24,10.59l-5.52-.11c.07-4.31.18-7.34,0-11.28,0,0,.28-3.13-1.21-3.13a7.15,7.15,0,0,0-2.79,1.13l-.1,6.07s-.14,1.52-.14,5.83v1.38c-.93,0-1.52,0-2,0-1.17,0-1.27-.07-3.83-.07V66.47l0-10c3.17-.2,2.48-.45,5.45-.62l.07,2.83a6.37,6.37,0,0,1,5.41-2.45,10.86,10.86,0,0,1,2.38.28C248.77,58,249,59.85,249.11,62.81Z"/><path d="M259.46,46.71c-1.87,4.14-3.11,7.86-5.73,11.07l-4-1.9a56.3,56.3,0,0,0,3.48-10.55C256.39,45.88,256.15,46.16,259.46,46.71Z"/><path d="M257.32,62.43c0-.62-.07-1.07-.07-1.51a4.39,4.39,0,0,1,1-2.56,9.53,9.53,0,0,1,4.66-3,25.19,25.19,0,0,1,4.07-.86.54.54,0,0,1,.34.07,45,45,0,0,1,.31,5.42c-1.58.41-.55.1-1.65.41-1.35.38-2.21,1.1-2,2.38.24,1.45,1,2.17,2.27,3.59a6.42,6.42,0,0,1,1.69,4.48c0,.31,0,.62,0,.93-.28,2.83-1.24,4.34-6.14,5.17a13.45,13.45,0,0,1-2.83.24c-.55,0-1.24,0-2.1,0l.07-5.38a12.14,12.14,0,0,0,2.34-.14c1-.14,1.87-.41,2-1.07.35-1.65-.51-2.51-1.44-3.45C259.49,66.85,257.35,64.4,257.32,62.43Z"/><polygon points="0 9.46 53.61 0 107.22 9.46 107.22 72.09 75.78 66.56 75.78 82.96 56.14 79.5 56.14 67.56 19.63 67.56 19.63 79.5 0 82.96 0 9.46" style="fill:#ffd100"/><polygon points="80.79 72.58 80.79 116.76 107.22 116.76 107.22 77.25 80.79 72.58" style="fill:#00b74f"/><polygon points="56.14 84.7 56.14 116.76 75.78 116.76 75.78 88.16 56.14 84.7" style="fill:#da291c"/><polygon points="19.63 84.69 19.63 116.76 0 116.76 0 88.16 19.63 84.69" style="fill:#0057b8"/><rect x="24.65" y="72.57" width="26.48" height="44.19" style="fill:#ed8b00"/><polygon points="70.6 39.23 62.83 31.22 74.84 31.22 78.37 22.74 83.32 31.93 92.74 25.57 89.91 36.4 97.68 41.82 90.15 45.12 92.03 55.01 81.9 49.36 75.76 58.54 74.6 48.65 62.83 47.71 70.6 39.23" style="fill:#fff"/><path d="M295.23,58.78"/></svg>
